<?xml version="1.0" encoding="UTF-8"?>
<svg id="_图层_1" data-name=" 图层 1" xmlns="http://www.w3.org/2000/svg" viewBox="0 0 1024 1024">
  <defs>
    <style>
      .cls-1 {
        fill: #1a1a1a;
      }

      .cls-1, .cls-2 {
        stroke-width: 0px;
      }

      .cls-2 {
        fill: #ffc940;
      }
    </style>
  </defs>
  <rect class="cls-2" width="1024" height="1024"/>
  <path class="cls-1" d="M511.9,201.6c-86-.2-169.1,30.9-234,87.2v-96.2s1.8-44.9-28.7-68.6c-30.5-23.7-94.9-15.6-94.9-15.6v449.4h0v1.4c0,197.6,160.1,357.7,357.7,357.7s357.7-160.1,357.7-357.7-160.1-357.7-357.7-357.7h-.1v.1ZM511.9,792.3c-18.5,0-37.2-2.2-55.1-6.5-13.3,20.5-34.5,57.8-45.4,87.4,4.8-27.5,12.2-54.6,21.7-80.6,12.4-34.1,24.2-63.7,35.5-89.2,6.1-14.5,17.8-26,32.1-32.1,5.7-2.3,12.2-3.4,18.5-3.2,11.1,0,22.4.2,33.6.5,15.1.5,30.2-.5,45-3.4,6.5-1.1,12.9-3.4,18.8-6.6,5.7-3.2,10.9-7.5,15.1-12.6,7.7-9.3,13.5-20.1,16.9-31.8,5.7-19.9,9.3-40.6,10.6-61.4.5-8.6.7-13.3.5-14.5-1.1-6.8-6.1-9.5-15.3-8.4-3.8.4-7.5.4-11.3-.2-3.2-.4-7-.4-11.3-.4s-11.8-.4-17.8-1.6c-5.7-1.1-11.3-3.1-16.3-5.7-11.3-6.1-21.9-13.5-31.2-22.3-2-1.8-7.2-6.5-15.1-13.3-4.8-4.5-10.2-8.6-16-12.2-12.4-7.2-26.7-10.9-41.1-10.9s-12.4.9-27.3,2.7c-.7.2-6.8,1.3-2.7,14,7.2,22.3,19.2,71.3,19.7,87.4.4,16.2-11.5,38.8-19,40-8.6,1.6-19.2-2.3-27.5-6.1-21.4-9.5-32.5-26.2-33.7-49.7-.4-7.9.2-16.2,1.6-23.9,3.4-16.9,7.9-33.4,14-49.4.4-1.1.2-1.4-.9-.7-16,9.3-29.8,22.3-40,37.5-10.9,16.7-20.6,34.1-29.4,52.2-11.3,23.7-29.1,40.4-53.5,50.1-30,12-61.6,19.4-93.9,21.9,30.7-8.4,72.9-29.8,90.3-40.4-2.3-13.1-3.4-26.4-3.4-39.7,0-128.7,104.3-233.1,233.1-233.1s233.3,104.3,233.3,233-104.6,233.1-233.3,233.1h.2v.1Z"/>
</svg>